<svg width="16" height="16" viewBox="0 0 16 16" fill="none" xmlns="http://www.w3.org/2000/svg">
<path d="M3.71592 8.83038L7.53791 12.7377C7.67351 12.8784 7.82418 12.9437 7.99997 12.9437C8.17575 12.9437 8.33646 12.8734 8.46704 12.7377L12.284 8.83038C12.3945 8.71487 12.4548 8.57927 12.4548 8.41353C12.4548 8.07704 12.1936 7.81588 11.8621 7.81588C11.7014 7.81588 11.5457 7.88117 11.4302 7.99668L8.00499 11.5173L4.56972 7.99668C4.45421 7.88117 4.30354 7.81588 4.1378 7.81588C3.80633 7.81588 3.54517 8.07704 3.54517 8.41353C3.54517 8.57425 3.60543 8.71487 3.71592 8.83038Z" fill="#1F1818"/>
</svg>
