<svg width="24" height="24" viewBox="0 0 24 24" fill="none" xmlns="http://www.w3.org/2000/svg">
<path d="M1.54578 20.7732C-0.51526 18.7046 -0.515261 15.3508 1.54578 13.2822L2.67451 12.1494C4.73556 10.0808 8.07717 10.0808 10.1382 12.1494L11.8075 13.8247C13.8685 15.8933 13.8685 19.2471 11.8075 21.3157L10.6787 22.4486C8.61768 24.5171 5.27607 24.5171 3.21503 22.4486L1.54578 20.7732Z" fill="white"/>
<path d="M8.35373 5.43463C7.39068 3.64439 8.05597 1.40955 9.83969 0.44299C11.6234 -0.523575 13.8501 0.144146 14.8131 1.93439L23.5586 18.1917C24.5217 19.9819 23.8564 22.2168 22.0727 23.1833C20.2889 24.1499 18.0623 23.4822 17.0992 21.6919L8.35373 5.43463Z" fill="white"/>
</svg>
