<svg width="36" height="36" viewBox="0 0 36 36" fill="none" xmlns="http://www.w3.org/2000/svg">
<path fill-rule="evenodd" clip-rule="evenodd" d="M6 0C2.68629 0 0 2.68629 0 6V30C0 33.3137 2.68629 36 6 36H30C33.3137 36 36 33.3137 36 30V6C36 2.68629 33.3137 0 30 0H6ZM15.8397 6.44299C14.056 7.40955 13.3907 9.64439 14.3537 11.4346L23.0992 27.6919C24.0623 29.4822 26.2889 30.1499 28.0727 29.1833C29.8564 28.2168 30.5217 25.9819 29.5586 24.1917L20.8131 7.93439C19.8501 6.14415 17.6234 5.47643 15.8397 6.44299ZM7.54578 19.2822C5.48474 21.3508 5.48474 24.7046 7.54578 26.7732L9.21502 28.4486C11.2761 30.5171 14.6177 30.5171 16.6787 28.4486L17.8075 27.3157C19.8685 25.2471 19.8685 21.8933 17.8075 19.8247L16.1382 18.1494C14.0772 16.0808 10.7356 16.0808 8.67451 18.1494L7.54578 19.2822Z" fill="#1F1818"/>
</svg>
