<svg width="23" height="24" viewBox="0 0 23 24" fill="none" xmlns="http://www.w3.org/2000/svg">
<path d="M11.1607 14.7121L12.2653 13.5931C11.4134 13.5209 10.7997 13.2393 10.3593 12.7989C9.1392 11.5788 9.1392 9.85334 10.3521 8.64767L12.749 6.24355C13.9691 5.03065 15.6874 5.02343 16.9075 6.24355C18.1348 7.47087 18.1204 9.18914 16.9147 10.402L15.6874 11.6221C15.9184 12.1564 15.9978 12.8062 15.8679 13.3693L17.9327 11.3117C19.7087 9.5429 19.7159 7.01604 17.9254 5.22558C16.1278 3.42791 13.6153 3.44234 11.8393 5.21836L9.32691 7.73078C7.55089 9.5068 7.54368 12.0264 9.33413 13.8169C9.75287 14.2428 10.3304 14.5605 11.1607 14.7121ZM11.8321 8.61157L10.7275 9.73061C11.5794 9.81002 12.1931 10.0844 12.6335 10.5248C13.8608 11.7449 13.8536 13.4704 12.6407 14.6832L10.2438 17.0801C9.02369 18.3003 7.30543 18.3003 6.09254 17.0801C4.86521 15.8528 4.87243 14.1418 6.08532 12.9289L7.30543 11.7016C7.0744 11.1745 7.00221 10.5248 7.12494 9.95441L5.06014 12.0192C3.28412 13.788 3.2769 16.3077 5.06736 18.0981C6.86503 19.8958 9.37745 19.8813 11.1535 18.1125L13.6659 15.5929C15.4419 13.8169 15.4491 11.2973 13.6587 9.5068C13.2399 9.08806 12.6696 8.7704 11.8321 8.61157Z" fill="#1F1818"/>
</svg>
