<svg width="23" height="23" viewBox="0 0 23 23" fill="none" xmlns="http://www.w3.org/2000/svg">
<path d="M16.6981 16.9701C18.9506 16.9701 20.7266 15.3168 20.7266 13.252C20.7266 11.7142 19.8531 10.3497 18.4164 9.75051C18.4236 6.48725 16.07 4.13367 13.045 4.13367C11.1246 4.13367 9.68066 5.12275 8.77821 6.43672C6.94443 5.94578 5.0168 7.31029 4.94461 9.34621C3.29132 9.64221 2.27336 11.1222 2.27336 12.9343C2.27336 15.1291 4.19377 16.9629 6.72063 16.9629L16.6981 16.9701ZM16.6981 15.5262H15.9761C15.413 14.3638 14.0268 13.1582 11.9548 13.1582C9.87559 13.1582 8.49664 14.3638 7.9263 15.5262H6.72785C5.00958 15.5262 3.73172 14.3277 3.73172 12.9343C3.73172 11.4904 4.61973 10.4219 6.09252 10.4219C6.20082 10.4219 6.24413 10.3642 6.23691 10.2631C6.1936 8.11888 7.73137 7.38248 9.28358 7.87341C9.37743 7.90229 9.43519 7.88063 9.47851 7.80122C10.1932 6.54501 11.2473 5.57036 13.0378 5.57036C15.3047 5.57036 16.9219 7.36804 17.0302 9.46894C17.0519 9.8588 17.023 10.2775 16.9941 10.6241C16.9797 10.7252 17.023 10.7829 17.1168 10.7973C18.4236 11.05 19.2683 11.9741 19.2683 13.252C19.2683 14.5154 18.1492 15.5262 16.6981 15.5262ZM11.9548 12.299C13.0161 12.3062 13.8752 11.3388 13.8752 10.1909C13.8752 9.06465 13.0161 8.14054 11.9548 8.14054C10.8863 8.14054 10.0272 9.06465 10.0272 10.1909C10.0344 11.3316 10.8863 12.2918 11.9548 12.299Z" fill="#1F1818"/>
</svg>
