<svg width="23" height="23" viewBox="0 0 23 23" fill="none" xmlns="http://www.w3.org/2000/svg">
<path d="M7.12492 17.9735H15.8678C17.4345 17.9735 18.2431 17.1649 18.2431 15.6199V6.83369C18.2431 5.2887 17.4345 4.4801 15.8678 4.4801H7.12492C5.56549 4.4801 4.74968 5.28148 4.74968 6.83369V15.6199C4.74968 17.1649 5.56549 17.9735 7.12492 17.9735ZM6.18638 15.49V6.96364C6.18638 6.26334 6.55458 5.9168 7.21878 5.9168H15.774C16.431 5.9168 16.8064 6.26334 16.8064 6.96364V15.49C16.8064 16.0314 16.5754 16.3635 16.1638 16.4863C15.5141 14.8186 13.6875 13.6706 11.5 13.6706C9.31246 13.6706 7.47868 14.8186 6.82892 16.4863C6.41018 16.3708 6.18638 16.0387 6.18638 15.49ZM11.5 12.5155C12.8789 12.5227 13.9547 11.3531 13.9547 9.8226C13.9547 8.3859 12.8717 7.18023 11.5 7.18023C10.1211 7.18023 9.03089 8.3859 9.03811 9.8226C9.04533 11.3531 10.1138 12.5011 11.5 12.5155Z" fill="#1F1818"/>
</svg>
