<svg width="23" height="24" viewBox="0 0 23 24" fill="none" xmlns="http://www.w3.org/2000/svg">
<path d="M11.5 19.1811C15.5935 19.1811 18.965 15.8023 18.965 11.716C18.965 7.62974 15.5791 4.25098 11.4928 4.25098C7.69527 4.25098 4.51865 7.16047 4.0927 10.8497C4.54031 10.7486 5.13232 10.7197 5.60881 10.7991C6.03477 7.92575 8.48943 5.74543 11.4928 5.74543C14.8066 5.74543 17.4778 8.40224 17.4778 11.716C17.4778 13.2971 16.8714 14.7266 15.8678 15.7879C15.1242 14.9648 13.5504 14.214 11.4928 14.214C10.8502 14.214 10.251 14.2862 9.70954 14.4162C9.79617 14.7627 9.83949 15.1237 9.83949 15.4919C9.83949 16.6687 9.38465 17.7588 8.64826 18.6035C9.52905 18.9717 10.4965 19.1811 11.5 19.1811ZM11.4928 13.03C12.8934 13.0372 13.9835 11.846 13.9835 10.301C13.9835 8.84263 12.8862 7.62252 11.4928 7.62252C10.1066 7.62252 8.9948 8.84263 9.00924 10.301C9.01646 11.846 10.0922 13.0156 11.4928 13.03ZM5.089 19.2172C7.11048 19.2172 8.80709 17.5278 8.80709 15.4919C8.80709 13.456 7.13214 11.7738 5.089 11.7738C3.05307 11.7738 1.37091 13.456 1.37091 15.4919C1.37091 17.535 3.05307 19.2172 5.089 19.2172ZM2.72819 15.4919C2.72819 15.1959 2.93034 15.0009 3.22635 15.0009H4.59085V13.6364C4.59085 13.3404 4.78578 13.1383 5.089 13.1383C5.39222 13.1383 5.58715 13.3404 5.58715 13.6364V15.0009H6.95165C7.24766 15.0009 7.4498 15.1959 7.4498 15.4919C7.4498 15.7951 7.24766 15.99 6.95165 15.99H5.58715V17.3617C5.58715 17.6578 5.39222 17.8599 5.089 17.8599C4.78578 17.8599 4.59085 17.6578 4.59085 17.3617V15.99H3.22635C2.93034 15.99 2.73541 15.7951 2.72819 15.4919Z" fill="#1F1818"/>
</svg>
