<svg width="23" height="23" viewBox="0 0 23 23" fill="none" xmlns="http://www.w3.org/2000/svg">
<path d="M21.8096 5.72192L22.3727 5.14435C22.6543 4.84835 22.6687 4.44405 22.3871 4.16249L22.1994 3.96756C21.9467 3.71488 21.528 3.75097 21.2537 4.02532L20.6833 4.58845L21.8096 5.72192ZM13.572 13.0859L15.0953 12.4289L21.2825 6.24895L20.1491 5.12992L13.9691 11.3099L13.2832 12.7899C13.211 12.9632 13.406 13.1581 13.572 13.0859ZM2.52605 17.9591H17.5933C18.9578 17.9591 19.7159 17.2155 19.7159 15.8582V9.67103L18.2575 11.1294V15.7283C18.2575 16.2914 17.9399 16.6091 17.3695 16.6091H2.74263C2.17951 16.6091 1.86184 16.2914 1.86184 15.7283V9.71435C1.86184 9.14401 2.17951 8.83356 2.74263 8.83356H14.5755L15.9184 7.49072H2.52605C1.16154 7.49072 0.403488 8.22712 0.403488 9.5844V15.8582C0.403488 17.2155 1.16154 17.9591 2.52605 17.9591ZM4.53309 13.8006C5.1251 13.8006 5.60159 13.3169 5.60159 12.7249C5.60159 12.1257 5.1251 11.6492 4.53309 11.6492C3.93387 11.6492 3.45015 12.1257 3.45015 12.7249C3.45015 13.3169 3.93387 13.8006 4.53309 13.8006ZM7.72415 13.8006C8.31616 13.8006 8.79987 13.3169 8.79987 12.7249C8.79987 12.1257 8.31616 11.6492 7.72415 11.6492C7.12492 11.6492 6.64843 12.1257 6.64843 12.7249C6.64843 13.3169 7.12492 13.8006 7.72415 13.8006ZM10.9152 13.8006C11.5072 13.8006 11.9909 13.3169 11.9909 12.7249C11.9909 12.1257 11.5072 11.6492 10.9152 11.6492C10.3232 11.6492 9.83949 12.1257 9.83949 12.7249C9.83949 13.3169 10.3232 13.8006 10.9152 13.8006Z" fill="#1F1818"/>
</svg>
