<svg width="23" height="23" viewBox="0 0 23 23" fill="none" xmlns="http://www.w3.org/2000/svg">
<path d="M5.63209 18.9162H13.3209C14.8659 18.9162 15.6673 18.1076 15.6673 16.5481V13.2993H14.2523V16.4615C14.2523 17.1329 13.8985 17.5011 13.1982 17.5011H5.7476C5.0473 17.5011 4.70076 17.1329 4.70076 16.4615V5.74043C4.70076 5.069 5.0473 4.70081 5.7476 4.70081H13.1982C13.8985 4.70081 14.2523 5.069 14.2523 5.74043V8.90983H15.6673V5.65379C15.6673 4.10158 14.8659 3.28577 13.3209 3.28577H5.63209C4.08709 3.28577 3.28572 4.10158 3.28572 5.65379V16.5481C3.28572 18.1076 4.08709 18.9162 5.63209 18.9162ZM10.2815 11.7616H17.5588L18.6273 11.711L18.1003 12.1586L17.0246 13.1694C16.8946 13.2849 16.8224 13.4509 16.8224 13.617C16.8224 13.9419 17.0679 14.2162 17.4 14.2162C17.5733 14.2162 17.7032 14.144 17.826 14.0213L20.1651 11.6027C20.3312 11.4295 20.3889 11.2706 20.3889 11.0974C20.3889 10.9241 20.3312 10.7653 20.1651 10.592L17.826 8.16621C17.7032 8.04347 17.5733 7.9785 17.4 7.9785C17.0679 7.9785 16.8224 8.2384 16.8224 8.5705C16.8224 8.72934 16.8946 8.90261 17.0246 9.01812L18.1003 10.0361L18.6346 10.4837L17.5588 10.4259H10.2815C9.92774 10.4259 9.62452 10.7292 9.62452 11.0974C9.62452 11.4656 9.92774 11.7616 10.2815 11.7616Z" fill="#B10F0F"/>
</svg>
