<svg width="23" height="24" viewBox="0 0 23 24" fill="none" xmlns="http://www.w3.org/2000/svg">
<path d="M8.18621 19.2028H14.821C15.9328 19.2028 16.6476 18.5314 16.7053 17.4196L17.189 7.0234H17.9832C18.3514 7.0234 18.633 6.73462 18.633 6.37364C18.633 6.01266 18.3442 5.73832 17.9832 5.73832H14.7777V4.65538C14.7777 3.54356 14.0702 2.8938 12.8645 2.8938H10.1211C8.91539 2.8938 8.20787 3.54356 8.20787 4.65538V5.73832H5.01681C4.65583 5.73832 4.36705 6.01988 4.36705 6.37364C4.36705 6.74184 4.65583 7.0234 5.01681 7.0234H5.81097L6.29468 17.4196C6.35244 18.5386 7.05996 19.2028 8.18621 19.2028ZM9.55793 4.72035C9.55793 4.35216 9.81784 4.11391 10.2149 4.11391H12.7706C13.1677 4.11391 13.4276 4.35216 13.4276 4.72035V5.73832H9.55793V4.72035ZM8.3306 17.9105C7.93353 17.9105 7.64474 17.6145 7.62308 17.1886L7.13937 7.0234H15.839L15.3697 17.1886C15.3553 17.6218 15.0737 17.9105 14.6622 17.9105H8.3306ZM9.37022 16.7482C9.68067 16.7482 9.8756 16.5533 9.86838 16.2645L9.65179 8.71279C9.64457 8.424 9.44242 8.23629 9.14642 8.23629C8.84319 8.23629 8.64827 8.43122 8.65549 8.72001L8.87207 16.2717C8.87929 16.5605 9.08144 16.7482 9.37022 16.7482ZM11.5 16.7482C11.8032 16.7482 12.0126 16.5605 12.0126 16.2717V8.72001C12.0126 8.43122 11.8032 8.23629 11.5 8.23629C11.1968 8.23629 10.9946 8.43122 10.9946 8.72001V16.2717C10.9946 16.5605 11.1968 16.7482 11.5 16.7482ZM13.6298 16.7554C13.9186 16.7554 14.1207 16.5605 14.1279 16.2717L14.3445 8.72001C14.3517 8.43122 14.1568 8.24351 13.8536 8.24351C13.5576 8.24351 13.3554 8.43122 13.3482 8.72001L13.1316 16.2717C13.1244 16.5533 13.3193 16.7554 13.6298 16.7554Z" fill="#B10F0F"/>
</svg>
